<svg xmlns="http://www.w3.org/2000/svg" width="513" height="492" viewBox="0 0 513 492">
    <path fill="#FFF" fill-rule="nonzero" d="M329.21 341.129v-8.915c2.52-2.035 4.942-4.264 7.268-6.59a132.466 132.466 0 0 0 33.528-73.84 65.12 65.12 0 0 0 42.056-25c14.05-19.865 15.31-48.452 3.585-84.306a9.693 9.693 0 0 0-3.876-5.038l-5.33-3.586a131.397 131.397 0 0 0-31.396-88.472C348.978 16.02 308.957 1.194 255.952 1.001c-52.91 0-93.027 15.02-119.094 43.993a131.397 131.397 0 0 0-31.396 88.473l-5.33 3.585a9.693 9.693 0 0 0-3.876 5.039c-11.725 36.048-10.466 64.44 3.585 84.305a65.31 65.31 0 0 0 42.056 25.292 132.563 132.563 0 0 0 33.625 73.937 94.525 94.525 0 0 0 7.268 6.589v8.915c-37.114 7.17-185.278 41.959-182.759 140.8 0 5.351 4.34 9.69 9.69 9.69h492.557c5.352 0 9.69-4.339 9.69-9.69 2.52-98.841-145.644-133.63-182.758-140.8zm-193.127-111.05a42.057 42.057 0 0 1-20.543-15.02l.484.097c-9.69-14.148-10.562-35.564-1.938-63.86l7.074-4.748a9.69 9.69 0 0 0 4.264-9.012 114.536 114.536 0 0 1 26.357-79.75c21.9-24.808 57.076-37.211 104.17-37.405 47.095-.194 82.27 12.597 104.559 37.405a114.536 114.536 0 0 1 26.357 79.75 9.69 9.69 0 0 0 4.264 9.012l7.074 4.749c8.624 28.198 8.043 49.71-1.938 63.859a42.257 42.257 0 0 1-20.64 15.02 64.533 64.533 0 0 0 15.795-48.452 45.352 45.352 0 0 0-15.602-27.133C371.653 57.69 303.725 46.836 274.46 46.836a122.15 122.15 0 0 0-18.508 1.356 121.983 121.983 0 0 0-18.509-1.356c-29.07 0-96.903 10.659-101.36 107.755a45.35 45.35 0 0 0-15.795 27.036 64.44 64.44 0 0 0 15.795 48.452zm220.454-79.46a199.626 199.626 0 0 1-115.8-29.072 9.69 9.69 0 0 0-12.597 1.26c-19.38 20.834-54.75 25.68-71.804 26.745 5.232-68.51 46.707-83.433 81.592-83.433a93.67 93.67 0 0 1 16.57 1.357 9.669 9.669 0 0 0 3.876 0 94.13 94.13 0 0 1 16.57-1.357c34.595 0 76.263 15.31 81.108 84.402l.485.097zm-196.81 81.3l.388.098a9.687 9.687 0 0 0-2.423-6.493c-13.275-15.214-19.38-29.07-17.733-40.505a25.68 25.68 0 0 1 8.818-16.377c12.791 0 58.142-2.422 87.213-27.52a218.51 218.51 0 0 0 107.562 29.07c6.492 0 13.081 0 19.962-1.065a25.58 25.58 0 0 1 8.72 15.892c1.648 11.24-4.457 25.291-17.732 40.505a9.687 9.687 0 0 0-2.423 6.493v5.039l-56.397 30.233c-11.193-10.596-28.857-10.113-39.453 1.08-10.596 11.192-10.113 28.856 1.08 39.452 11.191 10.596 28.856 10.113 39.452-1.08a27.907 27.907 0 0 0 7.642-19.2 26.18 26.18 0 0 0 0-2.616l44.478-23.838a106.601 106.601 0 0 1-25.97 51.165 86.34 86.34 0 0 1-64.246 24.032h-4.845a86.535 86.535 0 0 1-64.15-23.935c-30.621-30.524-29.943-79.945-29.943-80.43zm125.295 55.623a8.625 8.625 0 1 1-17.25-.001 8.625 8.625 0 0 1 17.25 0zm-38.76 184.115H19.701c7.656-72.774 125.974-103.201 162.991-111.05v17.345c0 21.997 26.745 38.761 63.568 41.571v52.134zm-44.188-93.705v-33.431a117.157 117.157 0 0 0 51.455 10.853h4.845a117.157 117.157 0 0 0 51.455-10.853v33.431c0 9.206-21.027 22.481-53.877 22.481s-53.878-13.275-53.878-22.48zm63.568 93.996v-52.522c36.823-2.52 63.568-19.38 63.568-41.57v-16.959c37.308 7.752 155.044 38.18 162.99 111.05H265.642z"/>
</svg>
