<svg xmlns="http://www.w3.org/2000/svg" width="16" height="14" viewBox="0 0 16 14">
    <path fill="#FFF" fill-rule="nonzero" d="M.283 6.714l3.686 1.378 1.427 4.598c.092.295.451.404.69.208L8.14 11.22a.612.612 0 0 1 .747-.021l3.707 2.696a.434.434 0 0 0 .68-.263L15.991.546a.435.435 0 0 0-.582-.495L.279 5.9a.436.436 0 0 0 .004.815zm4.883.645l7.206-4.447c.13-.08.262.096.151.2L6.577 8.65a1.236 1.236 0 0 0-.382.738l-.203 1.504c-.027.201-.308.221-.364.027L4.85 8.176a.727.727 0 0 1 .317-.817z"/>
</svg>
