<svg xmlns="http://www.w3.org/2000/svg" width="14" height="14" viewBox="0 0 14 14">
    <path fill="#FFF" fill-rule="nonzero" d="M14 6.82c0 3.766-3.077 6.82-6.873 6.82a6.884 6.884 0 0 1-3.322-.85L0 14l1.24-3.659A6.748 6.748 0 0 1 .255 6.82C.254 3.053 3.331 0 7.127 0 10.924 0 14 3.053 14 6.82zM7.127 1.086c-3.186 0-5.778 2.572-5.778 5.734 0 1.254.409 2.416 1.1 3.361l-.721 2.13 2.22-.706a5.775 5.775 0 0 0 3.18.948c3.185 0 5.778-2.571 5.778-5.733 0-3.161-2.593-5.734-5.779-5.734zm3.47 7.304c-.042-.07-.154-.111-.322-.195-.169-.083-.997-.488-1.151-.543-.155-.056-.267-.084-.38.083a9.64 9.64 0 0 1-.533.655c-.098.112-.196.126-.365.043-.168-.084-.711-.26-1.355-.83a5.04 5.04 0 0 1-.937-1.158c-.098-.167-.01-.257.074-.34.076-.075.169-.196.253-.293.084-.098.112-.167.168-.279.057-.112.028-.21-.014-.293-.042-.083-.38-.906-.52-1.24-.14-.335-.28-.28-.378-.28-.099 0-.211-.014-.323-.014a.622.622 0 0 0-.45.21c-.154.167-.59.571-.59 1.394 0 .822.604 1.617.689 1.728.084.112 1.165 1.855 2.878 2.524 1.712.669 1.712.446 2.021.418.309-.028.997-.404 1.138-.795.14-.39.14-.725.098-.795z"/>
</svg>
