<svg xmlns="http://www.w3.org/2000/svg" width="182" height="168" viewBox="0 0 182 168">
    <g fill="#59A5DA" fill-rule="nonzero" opacity=".4">
        <path d="M100.1 83.03c-1.672 0-3.033-1.329-3.033-2.965 0-1.639-1.359-2.965-3.034-2.965h-9.1v5.93h6.587c.915 2.526 2.965 4.53 5.547 5.425v6.438h6.066v-8.897c0-1.639-1.358-2.965-3.033-2.965zM97.067 106.755v6.438c-2.582.895-4.632 2.898-5.547 5.424h-6.587v5.931h9.1c1.675 0 3.034-1.326 3.034-2.966 0-1.636 1.36-2.965 3.033-2.965 1.675 0 3.033-1.326 3.033-2.966v-8.896h-6.066zM21.233 77.1c-1.675 0-3.033 1.326-3.033 2.965 0 1.636-1.361 2.966-3.033 2.966-1.675 0-3.034 1.326-3.034 2.965v8.897H18.2v-6.438c2.582-.895 4.632-2.899 5.547-5.424h6.586V77.1h-9.1zM23.747 118.617c-.915-2.526-2.965-4.53-5.547-5.424v-6.438h-6.067v8.896c0 1.64 1.359 2.966 3.034 2.966 1.672 0 3.033 1.33 3.033 2.965 0 1.64 1.358 2.966 3.033 2.966h9.1v-5.931h-6.586zM68.72 77.453l-2.875 5.225c6.942 3.654 11.087 10.437 11.087 18.146 0 7.71-4.146 14.492-11.087 18.146l2.876 5.225c8.94-4.71 14.278-13.444 14.278-23.371 0-9.928-5.338-18.662-14.278-23.371zM87.967 97.858h6.067v5.931h-6.067zM21.233 97.858H27.3v5.931h-6.067z"/>
        <path d="M175.933 80.065V71.17h3.034c1.668 0 3.033-1.335 3.033-2.966V56.341c0-1.63-1.365-2.965-3.033-2.965h-3.034v-5.931c0-.95-.485-1.869-1.274-2.403L110.96.56a3.061 3.061 0 0 0-3.518 0L68.826 27.487l-2.972-2.907a3.17 3.17 0 0 0-2.154-.86H3.033C1.365 23.72 0 25.055 0 26.686V56.34c0 1.631 1.365 2.966 3.033 2.966H19.99l6.066 5.93H3.033C1.365 65.238 0 66.573 0 68.204v65.242c0 1.63 1.365 2.965 3.033 2.965h109.2c1.669 0 3.034-1.334 3.034-2.965V68.203c0-1.63-1.365-2.965-3.034-2.965H87.967v-5.931h87.966v5.93h-54.6v5.932h48.534v5.93h-18.2v5.932h15.166v59.31H45.5c-1.668 0-3.033 1.335-3.033 2.966v8.896h-3.034c-1.668 0-3.033 1.335-3.033 2.966v11.862c0 1.63 1.365 2.965 3.033 2.965h139.534c1.668 0 3.033-1.334 3.033-2.965v-11.862c0-1.631-1.365-2.966-3.033-2.966h-3.034v-8.896c0-1.631-1.365-2.966-3.033-2.966v-59.31c1.668 0 3.033-1.335 3.033-2.966zM23.387 54.235a3.17 3.17 0 0 0-2.154-.86H6.067V29.652h56.39l3.882 3.826 13.407 13.108L81.9 48.66v16.578h-9.1V56.34c0-.06-.03-.119-.03-.178a5.804 5.804 0 0 0-.152-.77 1.042 1.042 0 0 0-.121-.268 3.469 3.469 0 0 0-.577-.89l-9.1-8.896a3.17 3.17 0 0 0-2.153-.86H48.533c-1.668 0-3.033 1.335-3.033 2.966v11.862c0 .8.334 1.542.88 2.105l8.22 8.007v7.68h-7.856L35.52 66.099 23.387 54.236zm43.346 5.072v5.93h-7.856l-6.067-5.93h13.923zm-15.166-5.931V50.41h7.856l3.033 2.966h-10.89zM109.2 71.169v59.31H6.067V71.17h26.056l10.192 9.964c-5.672 4.952-8.948 11.95-8.948 19.69 0 9.935 5.338 18.654 14.287 23.37l2.881-5.22c-6.946-3.648-11.102-10.439-11.102-18.15 0-7.472 3.944-14.056 10.526-17.792H54.6v2.965h-3.033c-1.669 0-3.034 1.335-3.034 2.966v11.862c0 1.63 1.365 2.965 3.034 2.965h9.1v5.931H54.6v-2.965h-6.067v5.93c0 1.632 1.365 2.966 3.034 2.966H54.6v2.966h6.067v-2.966H63.7c1.668 0 3.033-1.334 3.033-2.965v-11.862c0-1.631-1.365-2.966-3.033-2.966h-9.1v-5.93h6.067v2.965h6.066v-5.931c0-1.631-1.365-2.966-3.033-2.966h-3.033V71.17H109.2zM83.144 41.514l-1.487-1.483 9.373-6.346a17.829 17.829 0 0 0 2.427 7.829H83.144zm86.723 11.862h-81.9v-5.931H100.1a3.07 3.07 0 0 0 2.882-2.017 2.994 2.994 0 0 0-1.062-3.321c-3.033-2.224-4.853-5.783-4.853-9.49 0-1.453.273-2.847.758-4.152a2.948 2.948 0 0 0-.94-3.41 3.107 3.107 0 0 0-3.61-.09L77.289 35.76l-4.125-4.003L109.2 6.609l60.667 42.348v4.419zM48.533 148.272h121.334v5.931H48.533v-5.93zm127.4 11.862v5.931H42.467v-5.93h133.466z"/>
        <path d="M159.878 98.727L138.645 77.97a3.076 3.076 0 0 0-3.306-.643 2.965 2.965 0 0 0-1.873 2.74v8.896h-12.133v5.931H136.5c1.675 0 3.033-1.326 3.033-2.965v-4.704l13.91 13.6-13.91 13.6v-4.704c0-1.639-1.358-2.965-3.033-2.965h-15.167v5.93h12.134v8.897c0 1.2.739 2.282 1.872 2.74.376.154.77.226 1.161.226.79 0 1.564-.301 2.145-.869l21.233-20.758a2.918 2.918 0 0 0 0-4.194zM154.7 121.582h6.067v14.828H154.7zM142.567 130.479h6.067v5.931h-6.067zM121.333 124.548h6.067v11.862h-6.067zM150.36 42.04l-25.237-17.08a3.088 3.088 0 0 0-3.599.104 2.924 2.924 0 0 0-.96 3.391c.51 1.31.77 2.711.77 4.162 0 3.707-1.816 7.254-4.857 9.493a2.925 2.925 0 0 0-1.053 3.31c.413 1.208 1.571 2.025 2.876 2.025h30.333c1.327 0 2.5-.843 2.896-2.083a2.932 2.932 0 0 0-1.169-3.321zm-25.413-.526a17.592 17.592 0 0 0 2.419-7.823l11.557 7.823h-13.976z"/>
    </g>
</svg>
