<svg xmlns="http://www.w3.org/2000/svg" width="16" height="16" viewBox="0 0 16 16">
    <path fill="#59A5DA" fill-rule="nonzero" d="M15.997 5.333c-.026-.507-.569-.903-1.654-1.205a.73.73 0 0 0 .057-.277V1.778h-.005C14.3.05 7.931 0 7.2 0 6.469 0 .1.051.005 1.778H0v2.074c.001.563.655 1.003 1.628 1.331a.715.715 0 0 0-.024.15H1.6v2.071c-1.048.3-1.571.69-1.597 1.189H0v2.073c0 .392.319.725.84 1.002a.716.716 0 0 0-.036.184H.8V13.926c.002.985 2 1.597 4.218 1.883.016.003.031.01.049.01l.014-.002c.428.053.862.095 1.293.125.009.001.017.006.026.006.005 0 .01-.003.014-.003C6.96 15.98 7.497 16 8 16c.503 0 1.04-.019 1.586-.056.005 0 .01.004.014.004.01 0 .017-.005.026-.006.43-.03.865-.072 1.293-.126.005 0 .01.003.014.003.018 0 .033-.007.049-.01 2.219-.286 4.216-.898 4.218-1.884v-2.073h-.004c-.019-.363-.298-.667-.848-.92a.725.725 0 0 0 .052-.267V8.73c.957-.327 1.599-.765 1.6-1.323V5.333h-.003zm-2.16 5.429l-.09.088c-.14.138-.373.276-.68.41V9.846c.317-.123.587-.26.8-.408v1.226c0 .03-.01.063-.03.097zm-5.963 1.377l-.118.002-.29.004v-1.48a27.235 27.235 0 0 0 1.068-.033v1.48l-.173.008c-.16.008-.322.014-.487.019zm-1.165.004a24.45 24.45 0 0 1-.364-.01l-.045-.002c-.146-.005-.29-.012-.433-.02v-1.479c.267.014.536.023.804.029h.042l.22.004v1.481l-.155-.001-.069-.002zm-4.816-.676a.872.872 0 0 0-.026-.008v-1.431c.249.074.516.142.8.204v1.447c-.245-.058-.471-.119-.677-.181l-.097-.03zm5.62 2.454l.22.003v1.482a24.256 24.256 0 0 1-1.066-.035v-1.48c.267.015.535.024.804.03h.042zm1.016-.001c.269-.006.537-.015.804-.028v1.479c-.342.019-.698.03-1.066.034v-1.48l.22-.004.042-.001zm2.138-.134v1.471c-.257.03-.523.057-.8.078v-1.477c.27-.02.537-.044.8-.072zm.533-.064c.275-.037.542-.078.8-.125v1.455c-.251.049-.518.094-.8.136v-1.466zm1.333-.23c.284-.063.551-.13.8-.205v1.43c-.237.077-.505.15-.8.22v-1.446zm-9.066 0v1.445c-.295-.07-.563-.143-.8-.22v-1.43c.249.074.516.143.8.204zm.533.105c.258.047.525.089.8.125v1.466a16.852 16.852 0 0 1-.8-.136v-1.455zm1.333.19c.263.027.53.051.8.071v1.478a20.957 20.957 0 0 1-.8-.078v-1.472zm-.661-1.773l-.081-.009-.058-.007v-1.47c.263.027.53.051.8.071v1.477a23.286 23.286 0 0 1-.661-.062zM4 10.463v1.465a16.852 16.852 0 0 1-.8-.135v-1.455c.258.046.525.088.8.125zm5.244 1.599l-.177.014V10.6c.27-.02.537-.044.8-.072v1.471a19.65 19.65 0 0 1-.623.064zm1.156-.134v-1.465c.275-.037.542-.079.8-.125v1.455c-.251.049-.518.094-.8.135zm1.333-1.696c.284-.062.551-.13.8-.205v1.432c-.237.076-.505.15-.8.22v-1.447zM8.087 8.879a22.851 22.851 0 0 1-.62-.027V7.373c.267.014.535.023.804.028l.042.001.22.004v1.48c-.13-.002-.26-.003-.387-.006l-.06-.001zm-6.22-4.235V3.213c.249.074.516.143.8.204v1.447l-.099-.023a10.302 10.302 0 0 1-.701-.197zm4.846-.797l.22.003v1.48a23.806 23.806 0 0 1-1.066-.034V3.818c.267.014.535.023.804.028h.042zm1.016-.001c.269-.006.537-.015.804-.029v1.479l-.134.008h-.012c-.178.01-.36.016-.546.02-.028.002-.057.002-.086.003-.095.002-.192.002-.288.003V3.85l.22-.003.042-.001zm6.077.149l-.008-.002-.097.084c-.14.122-.357.245-.634.364V3.03c.317-.122.587-.258.8-.407V3.85a.245.245 0 0 1-.061.145zM10.4 5.112V3.648c.275-.037.542-.079.8-.125v1.452c-.253.05-.519.096-.8.137zm1.333-.25V3.416c.284-.061.551-.13.8-.204V4.64c-.239.077-.508.151-.8.22zm-1.866-1.15v1.47c-.258.03-.525.056-.8.078V3.784c.27-.02.537-.044.8-.072zm-5.334 1.47v-1.47c.263.028.53.052.8.072v1.475a21.82 21.82 0 0 1-.8-.077zM4 3.648v1.464l-.16-.022-.1-.016a17.52 17.52 0 0 1-.453-.079L3.2 4.978V3.523c.258.046.525.089.8.125zm2.867 5.164l-.108-.01c-.17-.014-.337-.03-.5-.049l-.104-.011-.022-.003V7.268c.263.028.53.052.8.072v1.476l-.066-.004zM5.105 8.59C5 8.572 4.901 8.551 4.8 8.532V7.079c.258.046.525.088.8.125v1.465a18.542 18.542 0 0 1-.495-.079zm-.838-1.617v1.444c-.295-.07-.562-.145-.8-.223V6.768c.249.075.516.143.8.205zm-1.334-.386v1.408c-.419-.18-.69-.364-.777-.527l-.018-.034-.005-.028V6.18c.213.15.483.285.8.408zm6.396.814c.269-.005.537-.014.804-.028v1.478c-.35.02-.706.03-1.066.034v-1.48l.22-.003h.042zm3.446 1.137a15.596 15.596 0 0 1-.569.1l-.206.03V7.204c.275-.037.542-.079.8-.125v1.454l-.025.005zm-1.805.253c-.1.01-.203.016-.303.024V7.34c.27-.02.537-.044.8-.072v1.47c-.155.018-.31.036-.47.05l-.027.003zm3.047-.555a9.898 9.898 0 0 1-.62.168l-.063.015V6.973c.283-.062.55-.13.8-.205V8.2l-.117.036zm1.447-2.883c-.025.2-.435.468-1.168.72-.943.324-2.42.62-4.29.712-.096.005-.192.01-.29.013l-.24.008a27.825 27.825 0 0 1-1.352 0 20.992 20.992 0 0 1-.24-.009c-.099-.003-.194-.008-.29-.012-1.87-.092-3.347-.389-4.29-.712-.727-.25-1.137-.515-1.167-.716.001-.005.001-.01.005-.017l.056.014a16.45 16.45 0 0 0 2.063.39l.006.001h.001c.426.054.868.096 1.322.126l.01.002.005-.001a24.557 24.557 0 0 0 2.023.05c1.938-.034 3.734-.29 4.983-.687l.17-.055.1-.035c.097-.034.19-.07.28-.106l.045-.02c.075-.031.148-.064.217-.098l.06-.029c.074-.037.146-.075.212-.114.03-.017.055-.035.083-.053.032-.02.064-.041.094-.062l.053-.035c1.194.287 1.508.602 1.539.725zM7.2.593c4.397 0 6.621.769 6.663 1.21-.033.2-.442.465-1.167.714-.943.324-2.42.62-4.29.712-.096.005-.192.01-.29.013l-.24.008a26.376 26.376 0 0 1-1.352 0l-.24-.008c-.099-.003-.194-.008-.29-.013-1.87-.092-3.347-.388-4.29-.712C.979 2.268.57 2.004.537 1.803.58 1.362 2.803.593 7.2.593zM.533 3.85V2.624c.213.149.483.285.8.407v1.42c-.518-.217-.8-.434-.8-.6zm1.292 4.1l.014.014c.365.41 1.121.731 2.062.971l.067.017.21.05c.864.204 1.896.352 3.02.425H7.2a24.153 24.153 0 0 0 2.165.046c.349-.008.692-.024 1.031-.046l.004.001.007-.001c1.127-.074 2.184-.224 3.078-.438a4.557 4.557 0 0 1-.789.342c-.996.342-2.586.653-4.608.726l-.18.006-.198.004a26.376 26.376 0 0 1-1.427-.012c-.098-.003-.193-.007-.289-.012-1.87-.092-3.347-.388-4.29-.712C.97 9.08.56 8.812.536 8.61c.03-.111.3-.39 1.29-.66zM.533 10.665V9.44c.213.149.483.285.8.407v1.413l-.152-.066-.003.004c-.419-.193-.644-.382-.645-.532zm.8 3.26v-1.227c.213.149.483.285.8.407v1.42c-.518-.217-.8-.433-.8-.6zm12.534.6v-1.42c.317-.122.587-.258.8-.407v1.226c0 .167-.282.384-.8.6zm.796-2.65c-.029.2-.438.466-1.167.716-.943.324-2.42.62-4.29.713-.096.004-.192.009-.29.012l-.24.008a27.825 27.825 0 0 1-1.352 0l-.239-.008-.29-.013c-1.872-.091-3.348-.388-4.291-.712-.706-.242-1.113-.5-1.164-.698a7.327 7.327 0 0 0 .58.197c.042.013.086.025.13.037.97.277 2.21.472 3.549.56H5.6a24.025 24.025 0 0 0 2.05.049c.389-.007.773-.023 1.148-.048h.006c.457-.031.9-.075 1.325-.129l.005.001c.005 0 .01-.003.016-.004a17.54 17.54 0 0 0 1.65-.289c.787-.18 1.469-.412 1.937-.7l.073-.048c.03-.02.058-.039.086-.06.025-.018.055-.035.078-.054.527.209.672.395.69.47zm.004-3.87V6.588c.317-.122.587-.258.8-.407v1.226c0 .166-.282.383-.8.6z" opacity=".6"/>
</svg>
