<svg xmlns="http://www.w3.org/2000/svg" width="12" height="16" viewBox="0 0 12 16">
    <g fill="#FFF" fill-rule="nonzero">
        <path d="M11.757 14.839a.243.243 0 0 0-.279.196.84.84 0 0 1-.791.694h-.001a.603.603 0 0 1-.504-.584v-.606a.356.356 0 0 0-.362-.35H1.787v-4.036a.24.24 0 0 0-.243-.236.24.24 0 0 0-.244.236v4.035H.362c-.2 0-.362.157-.362.35v.607c0 .548.44 1.058 1.128 1.058 10.017 0 9.556.002 9.584-.002h.001a1.32 1.32 0 0 0 1.246-1.092.237.237 0 0 0-.202-.27zm-10.666.891a.596.596 0 0 1-.604-.585v-.484h9.207c.025.341-.082.681.18 1.07H1.091zM11.89 2.565c-.116-.232-.105-.145-2.118-2.09a.872.872 0 0 0-.605-.24H1.705A.4.4 0 0 0 1.3.628v8.58c0 .13.11.237.244.237a.24.24 0 0 0 .243-.237V.707h7.39V2.28c0 .35.295.635.656.635h1.655v11.214c0 .13.11.237.244.237a.24.24 0 0 0 .244-.237c-.026-11.704.07-11.286-.087-11.563zm-2.057-.123a.166.166 0 0 1-.168-.163V1.035l1.473 1.407H9.833z"/>
        <path d="M10.313 4.317a.24.24 0 0 0 .244-.236.24.24 0 0 0-.244-.236H9.135a.24.24 0 0 0-.244.236c0 .13.109.236.244.236h1.178zM2.962 4.317H8.16a.24.24 0 0 0 .244-.236.24.24 0 0 0-.244-.236H2.962a.24.24 0 0 0-.243.236c0 .13.109.236.243.236zM2.962 5.928h7.351a.24.24 0 0 0 .244-.237.24.24 0 0 0-.244-.236h-7.35a.24.24 0 0 0-.244.236c0 .13.109.237.243.237zM2.962 7.538h7.351a.24.24 0 0 0 .244-.236.24.24 0 0 0-.244-.236h-7.35a.24.24 0 0 0-.244.236c0 .13.109.236.243.236zM2.962 9.149h7.351a.24.24 0 0 0 .244-.237.24.24 0 0 0-.244-.236h-7.35a.24.24 0 0 0-.244.236c0 .13.109.237.243.237zM8.574 13.053a.24.24 0 0 0-.254.225.24.24 0 0 0 .232.247c1.034.045 1.78-.924 1.629-1.396-.073-.227-.301-.318-.41-.362a64.344 64.344 0 0 0-1.481-.574c.059-.198.098-.404.114-.62.027-.372-.37-.633-.717-.47-.403.19-.601.29-.69.519-.147.379.157.66.566.809l.1.036c-.287.612-.768 1.151-1.209 1.646a.231.231 0 0 0 .025.333.249.249 0 0 0 .344-.024c.472-.53.987-1.107 1.299-1.785.073.027 1.53.573 1.592.633-.003.052-.06.223-.245.413-.143.147-.449.388-.895.37zm-.743-2.029c-.563-.206-.466-.245.069-.496.01-.004.019.002.018.012a2.407 2.407 0 0 1-.087.484z"/>
    </g>
</svg>
