<svg xmlns="http://www.w3.org/2000/svg" width="18" height="18" viewBox="0 0 18 18">
    <g fill="#FFF" fill-rule="nonzero" opacity=".6">
        <path d="M17.522 6.177l-5.7-5.7A1.623 1.623 0 0 0 10.667 0c-.437 0-.848.17-1.155.477L.477 9.512A1.623 1.623 0 0 0 0 10.667c0 .438.17.848.477 1.156l.703.703 4.724 4.724H5.25a.375.375 0 0 0 0 .75h7.5a.375.375 0 0 0 0-.75H8.76l8.762-8.762a1.636 1.636 0 0 0 0-2.31zm-.53 1.78l-9.035 9.035a.878.878 0 0 1-.623.258H7.33a.877.877 0 0 1-.624-.258l-4.731-4.731 8.676-8.677a.375.375 0 1 0-.53-.53L1.445 11.73l-.438-.438a.877.877 0 0 1-.257-.625c0-.237.091-.459.257-.625l9.035-9.034a.878.878 0 0 1 .625-.258c.237 0 .46.092.625.258l2.029 2.028-8.677 8.677a.375.375 0 0 0 .53.53l8.677-8.676 3.14 3.14a.885.885 0 0 1 0 1.25z"/>
        <path d="M9.24 10.83a.375.375 0 0 0-.531 0l-2.951 2.951a.375.375 0 0 0 .53.53l2.951-2.95a.375.375 0 0 0 0-.53zM8.029 13.632l-1.21 1.21a.375.375 0 0 0 .53.53l1.21-1.21a.375.375 0 0 0-.53-.53zM9.143 12.518l-.16.159a.375.375 0 0 0 .53.53l.16-.159a.375.375 0 0 0-.53-.53zM14.311 5.758a.375.375 0 0 0-.53 0L12.19 7.35a.375.375 0 0 0 0 .53l1.06 1.061a.374.374 0 0 0 .53 0l1.592-1.59a.375.375 0 0 0 0-.531l-1.06-1.06zm-.795 2.387l-.53-.53 1.06-1.061.53.53-1.06 1.06zM11.262 2.819a.374.374 0 0 0 .265-.11l.16-.159a.375.375 0 0 0-.531-.53l-.16.159a.375.375 0 0 0 .266.64zM3.77 12.588l-.16.159a.375.375 0 0 0 .53.53l.16-.159a.375.375 0 0 0-.53-.53z"/>
    </g>
</svg>
