<svg xmlns="http://www.w3.org/2000/svg" width="165" height="161" viewBox="0 0 165 161">
    <g fill="#59A5DA" fill-rule="nonzero" opacity=".4">
        <path d="M160.62 56.624L108.372 4.377c-2.82-2.82-6.581-4.373-10.59-4.373-4.01 0-7.772 1.552-10.592 4.372L4.373 87.193C1.553 90.013 0 93.774 0 97.784c0 4.01 1.553 7.771 4.373 10.591l6.443 6.443.002.001.002.002 43.3 43.3h-5.996a3.437 3.437 0 0 0 0 6.874H67.225l49.646.001a3.438 3.438 0 0 0 0-6.874l-36.566-.001 80.315-80.315c5.84-5.84 5.84-15.343 0-21.182zm-4.861 16.32l-82.817 82.818a8.044 8.044 0 0 1-5.718 2.359h-.026a8.041 8.041 0 0 1-5.716-2.36L18.11 112.39l79.533-79.534a3.437 3.437 0 1 0-4.861-4.861l-79.534 79.534-4.014-4.014a8.043 8.043 0 0 1-2.36-5.73c0-2.173.839-4.208 2.36-5.73L92.052 9.238a8.045 8.045 0 0 1 5.73-2.36c2.174 0 4.209.838 5.73 2.36l18.596 18.595-79.534 79.536a3.438 3.438 0 0 0 4.86 4.86l79.535-79.534 28.791 28.79c3.16 3.16 3.159 8.3 0 11.46z"/>
        <path d="M84.692 99.278a3.438 3.438 0 0 0-4.862 0l-27.049 27.05a3.438 3.438 0 0 0 4.861 4.86l27.05-27.048a3.438 3.438 0 0 0 0-4.862zM73.597 124.956L62.503 136.05a3.438 3.438 0 0 0 4.861 4.861l11.094-11.094a3.438 3.438 0 0 0-4.86-4.861zM83.806 114.748l-1.458 1.457a3.438 3.438 0 0 0 4.86 4.862l1.459-1.458a3.437 3.437 0 0 0-4.86-4.861zM131.186 52.785a3.437 3.437 0 0 0-4.861 0L111.74 67.369a3.438 3.438 0 0 0 0 4.86l9.723 9.723a3.427 3.427 0 0 0 2.43 1.006c.88 0 1.76-.336 2.431-1.006l14.584-14.584a3.437 3.437 0 0 0 0-4.86l-9.722-9.723zm-7.293 21.875l-4.861-4.86 9.723-9.723 4.86 4.861-9.722 9.722zM103.234 25.841c.88 0 1.76-.336 2.431-1.007l1.458-1.46a3.437 3.437 0 0 0-4.862-4.86l-1.458 1.46a3.437 3.437 0 0 0 2.431 5.867zM34.552 115.39l-1.459 1.458a3.438 3.438 0 0 0 4.862 4.861l1.458-1.458a3.438 3.438 0 0 0-4.861-4.862z"/>
    </g>
</svg>
