<svg xmlns="http://www.w3.org/2000/svg" width="16" height="15" viewBox="0 0 16 15">
    <g fill="#FFF" fill-rule="nonzero">
        <path d="M5.772 5.788c-.527 0-.956.445-.956.991 0 .547.429.992.956.992.527 0 .956-.445.956-.992 0-.546-.429-.991-.956-.991zm0 1.497a.497.497 0 0 1-.487-.506c0-.278.218-.505.487-.505.268 0 .487.227.487.505a.497.497 0 0 1-.487.506zM8.264 5.788c-.527 0-.956.445-.956.991 0 .547.43.992.956.992.527 0 .956-.445.956-.992 0-.546-.429-.991-.956-.991zm0 1.497a.497.497 0 0 1-.487-.506c0-.278.219-.505.487-.505.269 0 .488.227.488.505a.497.497 0 0 1-.488.506zM10.757 5.788c-.527 0-.956.445-.956.991 0 .547.429.992.956.992.527 0 .956-.445.956-.992 0-.546-.43-.991-.956-.991zm0 1.497a.497.497 0 0 1-.487-.506c0-.278.218-.505.487-.505.268 0 .487.227.487.505a.497.497 0 0 1-.487.506zM5.772 8.206c-.527 0-.956.445-.956.992 0 .546.429.991.956.991.527 0 .956-.445.956-.991 0-.547-.429-.992-.956-.992zm0 1.497a.497.497 0 0 1-.487-.505c0-.279.218-.505.487-.505.268 0 .487.226.487.505a.497.497 0 0 1-.487.505zM10.757 8.206c-.527 0-.956.445-.956.992 0 .546.429.991.956.991.527 0 .956-.445.956-.991 0-.547-.43-.992-.956-.992zm0 1.497a.497.497 0 0 1-.487-.505c0-.279.218-.505.487-.505.268 0 .487.226.487.505a.497.497 0 0 1-.487.505zM8.264 8.206c-.527 0-.956.445-.956.992 0 .546.43.991.956.991.527 0 .956-.445.956-.991 0-.547-.429-.992-.956-.992zm0 1.497a.497.497 0 0 1-.487-.505c0-.279.219-.505.487-.505.269 0 .488.226.488.505a.497.497 0 0 1-.488.505zM8.264 10.625c-.527 0-.956.445-.956.991 0 .547.43.992.956.992.527 0 .956-.445.956-.992 0-.546-.429-.991-.956-.991zm0 1.496a.497.497 0 0 1-.487-.505c0-.278.219-.505.487-.505.269 0 .488.227.488.505a.497.497 0 0 1-.488.505zM5.772 10.625c-.527 0-.956.445-.956.991 0 .547.429.992.956.992.527 0 .956-.445.956-.992 0-.546-.429-.991-.956-.991zm0 1.496a.497.497 0 0 1-.487-.505c0-.278.218-.505.487-.505.268 0 .487.227.487.505a.497.497 0 0 1-.487.505zM3.61 6.78l.345-.358a.25.25 0 0 0 0-.344.229.229 0 0 0-.331 0l-.345.358-.344-.358a.229.229 0 0 0-.332 0 .25.25 0 0 0 0 .344l.345.357-.345.358a.25.25 0 0 0 0 .343.23.23 0 0 0 .332 0l.344-.357.345.357a.23.23 0 0 0 .331 0 .25.25 0 0 0 0-.343l-.344-.358zM3.61 9.198l.345-.357a.25.25 0 0 0 0-.344.229.229 0 0 0-.331 0l-.345.357-.344-.357a.229.229 0 0 0-.332 0 .25.25 0 0 0 0 .344l.345.357-.345.357a.25.25 0 0 0 0 .344.23.23 0 0 0 .332 0l.344-.357.345.357a.23.23 0 0 0 .331 0 .25.25 0 0 0 0-.344l-.344-.357zM3.955 11.973l-.344-.357.344-.357a.25.25 0 0 0 0-.344.229.229 0 0 0-.331 0l-.345.357-.344-.357a.229.229 0 0 0-.332 0 .25.25 0 0 0 0 .344l.345.357-.345.357a.25.25 0 0 0 0 .344.23.23 0 0 0 .332 0l.344-.357.345.357a.23.23 0 0 0 .331 0 .25.25 0 0 0 0-.344z"/>
        <path d="M15.987 12.697l-.64-3.489a.235.235 0 0 0-.274-.193.243.243 0 0 0-.186.284l.639 3.488c.036.196-.123.38-.34.38h-3.468l2.25-2.333a.25.25 0 0 0 .068-.172V4.657l.643 3.508a.235.235 0 0 0 .274.193.243.243 0 0 0 .186-.284l-1.104-6.03a.664.664 0 0 0-.652-.646H11.33V.617a.239.239 0 0 0-.234-.243.239.239 0 0 0-.234.243v.781H9.29V.617a.239.239 0 0 0-.235-.243.239.239 0 0 0-.234.243v.781h-1.57V.617a.239.239 0 0 0-.234-.243.239.239 0 0 0-.234.243v.781h-1.57V.617A.239.239 0 0 0 4.98.374a.239.239 0 0 0-.235.243v.781h-1.57V.617a.239.239 0 0 0-.234-.243.239.239 0 0 0-.234.243v.781H.653A.666.666 0 0 0 0 2.075v11.558c0 .374.293.677.653.677H6.47c.13 0 .235-.109.235-.243a.239.239 0 0 0-.235-.243H.653a.188.188 0 0 1-.184-.19v-9.08h13.098v5.865h-2.63a.666.666 0 0 0-.653.677v2.728h-2.72a.239.239 0 0 0-.233.243c0 .134.104.243.234.243h2.953c.06 0 .121-.025.166-.071l.565-.586h3.937c.51 0 .892-.46.8-.956zM.469 4.068V2.075c0-.105.082-.19.184-.19h2.054v1.091c0 .135.105.243.234.243.13 0 .235-.108.235-.243V1.885h1.57v1.091c0 .135.104.243.234.243s.234-.108.234-.243V1.885h1.57v1.091c0 .135.105.243.234.243.13 0 .234-.108.234-.243V1.885h1.57v1.091c0 .135.105.243.235.243.129 0 .234-.108.234-.243V1.885h1.57v1.091c0 .135.104.243.234.243s.234-.108.234-.243V1.885h2.054c.102 0 .184.085.184.19v1.993H.47zm10.284 9.412v-2.384c0-.105.082-.19.184-.19h2.299c-.235.242-2.248 2.33-2.483 2.574z"/>
    </g>
</svg>
