<svg xmlns="http://www.w3.org/2000/svg" width="18" height="10" viewBox="0 0 18 10">
    <g fill="#FFF" fill-rule="nonzero">
        <path d="M17.683 4.832c-.037-.047-.908-1.162-2.403-2.282C13.283 1.054 11.11.263 8.996.263s-4.287.791-6.284 2.287C1.217 3.67.345 4.785.309 4.832L0 5.23l.309.399c.036.047.908 1.162 2.403 2.281 1.997 1.497 4.17 2.287 6.284 2.287s4.287-.79 6.284-2.287c1.495-1.12 2.366-2.234 2.403-2.281l.309-.399-.31-.398zM8.996 8.71c-1.882 0-3.413-1.56-3.413-3.48 0-.3.038-.592.109-.87l-.78-.134a4.355 4.355 0 0 0-.116 1.004c0 1.24.519 2.358 1.347 3.14a10.997 10.997 0 0 1-2.656-1.474A13.33 13.33 0 0 1 1.642 5.23c.362-.396.997-1.034 1.845-1.665.684-.51 1.59-1.073 2.656-1.475l.522.601c.61-.583 1.43-.94 2.33-.94 1.883 0 3.413 1.56 3.413 3.48 0 1.918-1.53 3.479-3.412 3.479zm5.51-1.814c-.685.51-1.591 1.073-2.657 1.474a4.31 4.31 0 0 0 1.347-3.14 4.31 4.31 0 0 0-1.347-3.14 11 11 0 0 1 2.656 1.475c.848.63 1.483 1.269 1.845 1.665a13.325 13.325 0 0 1-1.845 1.666z"/>
        <path d="M6.824 4.554a2.356 2.356 0 0 0-.098.676c0 1.279 1.016 2.315 2.27 2.315s2.27-1.036 2.27-2.315c0-1.278-1.016-2.315-2.27-2.315a2.24 2.24 0 0 0-1.573.647l1.12 1.287-1.719-.295z"/>
    </g>
</svg>
