<svg xmlns="http://www.w3.org/2000/svg" xmlns:xlink="http://www.w3.org/1999/xlink" width="683" height="294" viewBox="0 0 683 294">
    <defs>
        <path id="a" d="M0 0h937.557v293.973H0z"/>
    </defs>
    <g fill="none" fill-rule="evenodd" opacity=".16" transform="translate(-255)">
        <mask id="b" fill="#fff">
            <use xlink:href="#a"/>
        </mask>
        <path fill="#231F20" d="M906.956 176.927l26.708.614c.01.12.015.236.044.348l-81.737 31.3 54.985-32.262zm-106.296 4.689c.243.23.53.423.88.508a1.961 1.961 0 0 0 1.988-.722l44.236 28.117c-.073.144-.162.275-.199.44-.017.066.005.129-.005.2l-80.403.179 33.503-28.722zm-35.034 29.218h.316l-6.301 5.401 5.985-5.401zm-36.152 12.885l14.66 4.108c-.045.273-.036.537.028.79l-77.24 28.727 62.552-33.625zm-121.556 67.153a1.952 1.952 0 0 0-.923-.68l11.773-44.576c.9.155 1.745-.336 2.1-1.15l40.91 13.857c-.002.015-.01.022-.012.034-.102.435-.02.856.153 1.235l-54 31.28zm-72.768-42.841l82.02-4.01c.116.686.605 1.25 1.283 1.495l-11.774 44.579a1.946 1.946 0 0 0-1.878.719l-69.818-42.127c.05-.117.129-.221.158-.35.024-.105.002-.202.01-.306zm-83.236 38.912c-.178-.274-.438-.478-.736-.636l30.088-77.24c.015.003.03.017.049.02.693.163 1.363-.095 1.827-.569l48.448 38.327a2 2 0 0 0-.277.608c-.085.371-.026.724.088 1.061l-79.487 38.43zm-71.983-35.972l49.724-50.811c.223.175.473.31.765.379.209.048.416.034.617.02l18.595 85.626a1.924 1.924 0 0 0-.994.76l-68.384-34.089c.027-.075.078-.138.097-.218.144-.618-.048-1.213-.42-1.667zm-40.597 11.004c-.029-.007-.05.003-.08-.002l5.723-84.48a1.84 1.84 0 0 0 .462-.08l32.018 73.096a1.938 1.938 0 0 0-.93 1.247 1.85 1.85 0 0 0 .007.848L340.693 263.2c-.226-.588-.698-1.074-1.359-1.225zm-71.915-55.568l75.745-29.923c.258.484.695.863 1.269.997.026.002.05-.005.077.002l-5.72 84.475c-.488.03-.92.229-1.261.566l-70.319-54.633c.1-.17.2-.34.248-.544.076-.326.04-.639-.039-.94zm-89.598-22.794l66.042-53.705c.247.243.537.443.896.525.243.059.484.054.717.022l19.375 74.652c-.5.194-.9.578-1.103 1.103l-85.667-21.321c.056-.455-.027-.906-.26-1.276zm-76.802 28.134c-.041-.01-.08.003-.121-.005l3.949-56.052a1.927 1.927 0 0 0 1.633-.969l67.827 29.368c-.014.049-.046.083-.058.132-.073.318-.042.629.036.925L102.3 212.763c-.258-.49-.7-.882-1.28-1.016zm-62.97-45.171l64.9-12.258c.196.65.7 1.195 1.41 1.358.04.01.08-.003.123.005l-3.951 56.05a1.937 1.937 0 0 0-1.378.621L37.8 167.691c.09-.16.188-.323.234-.513.046-.204.029-.403.014-.602zM167.906 47.01c.051.012.1-.002.151.005l-2.802 39.211c-.887.01-1.691.583-1.898 1.482a1.944 1.944 0 0 0-.017.7L97.03 104.45c-.05-.136-.081-.277-.156-.396l70.148-57.55c.245.23.532.425.884.507zm84.833-35.017L216.4 94.252c-.042-.015-.074-.044-.118-.054-.588-.136-1.159.027-1.606.367l-44.868-48.191c.209-.236.381-.506.454-.834.075-.328.039-.644-.041-.947l81.82-33.312c.165.296.405.532.7.712zm101.917-8.794l-56.858 60.316a1.96 1.96 0 0 0-2.214-.087l-40.507-51.71c.267-.258.486-.561.574-.945.026-.114.005-.229.01-.34l98.57-8.055c.07.311.223.58.425.821zm59.39 79.293l-66.88-12.414c.068-.926-.5-1.788-1.419-2.034l10.284-64.157c.372.02.732-.046 1.045-.219l57.493 77.988a1.928 1.928 0 0 0-.523.836zm87.096 25.493l-34.869 4.322-48.567-28.5 83.443 23.87c-.014.104-.007.206-.007.308zm67.16 28.054l-53.887-1.781-10.357-24.597c.296-.175.525-.437.697-.746l63.604 26.825c-.012.041-.04.073-.053.119-.015.06.005.119-.005.18zm55.723-21.253l-8.47 15.18-43.45 5.866c-.013-.039-.03-.07-.045-.11l51.396-21.614c.141.262.323.503.569.678zm22.521 11.833a1.956 1.956 0 0 0-1.472-2.28 1.958 1.958 0 0 0-1.998.727l-16.152-10.842-.083-.06c.012-.025.02-.054.032-.076l69.084 26.79-49.41-14.26zm124.725 5.906l-56.897 27.627-12.816-16.491c.257-.253.469-.552.556-.93.042-.173.02-.339.015-.509l69.084-9.855c.012.056.041.105.058.158zm47.977 29.004l-19.57 14.484-25.442-42.555a1.88 1.88 0 0 0 .442-.413l44.528 26.679c-.065.131-.148.245-.18.394-.116.502-.016.998.222 1.411zm97.996-1.506L902.8 168.41l-77.44-7.663 91.69-1.295c.03.204.107.389.194.57zm16.615 16.566l-13.988-5.785c.025-.068.073-.122.088-.195a1.959 1.959 0 0 0-1.47-2.352c-.061-.014-.122.005-.183-.005l.61-7.158c.479.017.919-.126 1.274-.415l14.019 15.402c-.144.15-.258.316-.35.508zm-140.523 9.23l6.571-4.103-33.387 28.624h-.347l27.163-24.52zm123.158-14.488c.267.36.639.644 1.11.75.909.212 1.784-.27 2.175-1.076l13.987 5.785c-.022.068-.068.122-.085.192-.02.083.003.158-.007.239l-26.194-.598 9.014-5.292zm-20.442 5.03l2.503-1.847 17.632-3.812c.025.09.059.17.095.25l-9.63 5.649-10.6-.24zm-.418.308l10.498.238-53.092 31.152 42.594-31.39zm-91.732 3.686l27.474-1.208 16.986 29.658a1.985 1.985 0 0 0-.43.4l-44.234-28.116c.073-.144.16-.275.2-.438.021-.1 0-.194.004-.296zm-48.664 30.012a1.873 1.873 0 0 0-.204-.622l35.836-22.383-25.46 22.98-10.172.025zm-8.35 16.06l5.784-13.985c.068.025.121.07.192.085a1.964 1.964 0 0 0 2.354-1.467c.015-.068-.002-.136.008-.202l9.637-.022-17.555 15.85a1.95 1.95 0 0 0-.42-.258zm-8.544-7.478l6.338 7.853a1.936 1.936 0 0 0-.426.654l-14.284-4.007 8.372-4.5zm-55.075-8.596c.008-.04-.002-.076.003-.115l48.368.401 6.376 7.904-8.756 4.707-45.99-12.897zm-62.384 32.612l32.59-17.633 9.448 31.691c-.45.192-.807.542-1.011 1.009l-40.91-13.86c.002-.012.012-.02.017-.031.094-.413.02-.814-.134-1.176zm-86.27 3.593l25.02-30.31 57.63 26.848c-.02.058-.06.1-.074.16-.024.105-.002.204-.01.309l-82.018 4.007c-.066-.392-.273-.732-.547-1.014zm-50.94-39.22l53.898-.528a1.945 1.945 0 0 0 1.487 1.713l-5.693 37.452a1.916 1.916 0 0 0-1.526.576l-48.448-38.327c.119-.184.223-.379.277-.607.02-.095 0-.185.005-.28zm-217.69-2.348c-.106-.024-.21 0-.32-.007l-5.59-79.259 57.233-11.577c.202.636.695 1.166 1.395 1.326.345.08.68.034.999-.06l24.25 58.442c-.48.26-.858.695-.99 1.269-.075.323-.04.639.037.94l-75.745 29.92a1.928 1.928 0 0 0-1.268-.994zm-18.871-76.027a1.97 1.97 0 0 0 .02-.62l12.439-2.514 5.535 78.522-19.212-74.032c.586-.228 1.067-.697 1.218-1.356zm-69.937 54.045l32.363-72.234 33.844 17.093c-.027.073-.078.132-.095.212a1.954 1.954 0 0 0 .255 1.49L177.5 183.27c-.102-.1-.201-.19-.323-.263zm-70.906-30.493l57.852-62.77c.204.148.442.26.704.32.141.032.275.008.411.012l10.462 92.696a1.939 1.939 0 0 0-1.215.928l-67.83-29.366c.014-.046.046-.083.055-.132.149-.626-.053-1.231-.44-1.688zm57.531-63.113l-57.855 62.77a1.963 1.963 0 0 0-.704-.32 1.992 1.992 0 0 0-.656-.02l-8.839-44.875c.661-.192 1.213-.7 1.378-1.417a1.89 1.89 0 0 0 .02-.7l66.309-16.04c.082.223.194.42.347.602zm89.496-77.157c.098.02.19 0 .287.008l3.213 67.884-39.24 15.067a1.912 1.912 0 0 0-.72-.753l36.344-82.26c.039.013.073.045.116.054zm41.452 53.321l-37.474 14.39-3.2-67.691c.255-.044.493-.139.712-.275l40.504 51.713c-.265.257-.486.56-.576.945-.073.316-.041.624.034.918zm130.484 51.827l-8.656-32.542c.34-.126.647-.318.87-.607l47.996 28.165-40.21 4.984zm52.314 2.12l-15.183 7.006-36.458-6.59-.556-2.087 40.742-5.051 11.455 6.723zm23.689-10.928l-23.127 10.669-11.186-6.563 34.26-4.25c.009.052.038.098.053.144zm3.547 25.357c-.058-.84-.624-1.584-1.487-1.784-.102-.024-.199 0-.301-.007l.18-22.247a1.77 1.77 0 0 0 .396-.056l10.272 24.393-9.06-.3zm12.685 8.91l-12.86-7.984c.054-.117.13-.222.16-.353.013-.06-.002-.121.006-.184l9.236.306 3.458 8.215zm51.785-4.877l-12.722 29.12-38.297-23.77-3.653-8.669 53.71 1.774c.043.651.398 1.22.962 1.545zm31.63 18.299l-28.943-19.108c.068-.14.153-.27.19-.425.039-.165.02-.328.014-.489l43.156-5.828-14.418 25.85zm27.597-27.63l2.464 10.808-22.247 21.98-7.443-4.913 14.595-26.168 12.631-1.706zm-3.756-13.538c.228.051.454.042.675.015l2.987 13.113-12.28 1.66 8.321-14.924c.102.042.187.11.297.136zm17.982 11.114l-12.556-9.54 12.811 8.595c-.1.168-.2.335-.243.534-.032.141-.012.273-.012.411zm55.58 15.704c-.087.459-.002.91.209 1.297l-17.168 11.857-35.059-27.78c.066-.104.11-.225.156-.34l51.862 14.966zm12.631 19.906l-9.18-17.19 12.216 15.718-3.036 1.472zm40.41 46.615l-.097.34-25.676-19.537-14.428-27.021 3.106-1.507 37.095 47.725zm3.382.85c-.199-.21-.44-.373-.724-.483l18.853-75.004c.386.049.758-.014 1.093-.175l25.462 42.591-44.684 33.072zm-578.106-26.547c-.139-.031-.275-.01-.409-.01l-10.461-92.702a1.941 1.941 0 0 0 1.159-.802l42.205 21.317-32.375 72.25c-.042-.011-.073-.043-.12-.053zM414.63 84.501l-15.898 21.285-17.212-11.629 32.638-10.292c.114.243.27.456.472.636zm87.785 25.294l-4.525 21.066-19.326-11.34 22.828-10.53c.226.371.59.648 1.023.804zm126.38 18.383l-3.004-13.162c.292-.1.542-.26.756-.478l15.584 11.84-13.336 1.8zm81.676 33.871l-10.962 5.321a1.964 1.964 0 0 0-1.212-.86c-.049-.01-.095.003-.146-.005l2.002-22.293c.258.008.498-.034.73-.121l9.588 17.958zm40.305 50.216l.955-.51c.185.255.442.454.739.595l-5.346 12.926 3.652-13.011zm-10.486 5.637l4.394 8.23-5.958-7.387 1.564-.843zm-3.856-7.221l3.613 6.771-1.647.887-6.209-7.695 4.243.037zm14.345-.292l-14-.114-10.772-20.18 25.107 19.103-.335 1.191zm.87-.78a1.938 1.938 0 0 0-.258.566c-.015.076.002.146-.005.221l-.083-.002.243-.865.103.08zm.3-.364c-.014.017-.036.031-.053.048l-.233-.18.049-.172.238.304zm1.61-.547a1.942 1.942 0 0 0-1.264.243l-.428-.554 16.84-59.954-15.148 60.265zm-2.372 2.104l.19.003c.014.175.065.33.123.49l-.53.287.217-.78zm-10.7 6.415l-3.484-6.53 13.661.11-.313 1.116-9.864 5.304zm4.882 9.143l-4.641-8.691 9.43-5.071-3.834 13.648c-.333-.051-.656 0-.955.114zm-46.144-56.577l.039-.036 25.795 19.627 11.156 20.898-4.354-.038-32.636-40.45zm-16.376 39.015L697.4 170.33c.005 0 .01.005.015.005a1.95 1.95 0 0 0 1.497-.263l32.397 40.157-48.025-.399a1.91 1.91 0 0 0-.435-1.032zm-2 3.107c.024.005.039.02.06.027.079.017.151-.005.224.005l-7.105 18.792 6.821-18.824zm-1.106-.787c.195.284.474.493.8.646l-15.113 41.7-1.295 3.428c-.007-.002-.01-.007-.017-.007a1.97 1.97 0 0 0-.79-.017l-9.465-31.747 25.88-14.003zm-32.973-9.792l32.665 8.456c-.042.342.01.668.136.972l-25.824 13.973-6.977-23.4zm-85.04 12.382l49.007 25.836-50.798-23.669 1.791-2.167zm-19.083-5.887l.486-2.112a1.938 1.938 0 0 0 1.893-.806l16.306 8.596-1.806 2.185-16.879-7.863zm-8.833 38.225l8.726-37.766 16.682 7.775-24.932 30.207a2.178 2.178 0 0 0-.476-.216zm7.339-38.412l1.096.512-8.26 35.766 5.378-35.38c.729.05 1.409-.288 1.786-.898zm-3.077-3.36l.357.704c-.41.265-.724.678-.843 1.19-.022.098 0 .188-.007.282l-47.714.467 48.207-2.644zm-217.018-90.27c.007-.032 0-.064.002-.096l67.408 3.468c.04.469.255.884.585 1.207l-43.157 55.333a1.97 1.97 0 0 0-.581-.262c-.345-.08-.678-.034-.997.06l-24.252-58.445a1.92 1.92 0 0 0 .992-1.266zm-61.966-2.263l4.065-5.017 54.064 6.781c-.003.078-.012.156-.005.231l-57.17 11.566-.954-13.56zm-12.513 15.431l12.041-14.85.921 13.084-12.5 2.53a1.953 1.953 0 0 0-.462-.764zM215.278 97.97c.044.015.075.044.121.054.593.138 1.172-.032 1.621-.38l26.774 29.554c-.075.08-.153.15-.216.243l-33.846-17.094 5.546-12.377zm42.64 5.832c-.326.058-.608.216-.863.418a1.951 1.951 0 0 0-1.23-.887c-1.003-.233-1.982.362-2.29 1.326l-35.779-8.263a1.897 1.897 0 0 0-.036-.76l39.1-15.014 1.098 23.18zm37.274-37.43l-35.556 38.02c-.255-.262-.559-.481-.94-.568-.098-.022-.192 0-.29-.008l-1.105-23.379 37.614-14.442c.073.14.17.26.277.376zm48.186 4.072l-36.951 15.329-8.824-18.991c.46-.262.812-.697.94-1.249.008-.029-.002-.058.003-.087l44.774 4.458c-.003.185.01.367.058.54zm27.86 26.42L346.745 71.22l33.678 22.748-9.183 2.896zm27.22 9.29l-7.026 9.403a1.91 1.91 0 0 0-.593-.27c-.6-.138-1.18.037-1.633.389l-17.574-18.398 9.33-2.943 17.496 11.819zm20.733 11.99a1.943 1.943 0 0 0-1.444-1.448c-.126-.029-.25-.004-.376-.01l-1.247-31.71c.036-.005.073.01.11.002l8.633 32.464-5.676.703zm.039.579c0-.041.002-.08 0-.122l5.756-.712.523 1.97-6.28-1.136zm11.443 20.543c-.085.032-.173.051-.253.095l-11.983-19.175c.338-.241.593-.586.725-1.009l6.478 1.174 5.033 18.915zm2.347.795a1.965 1.965 0 0 0-1.237-.902 2.036 2.036 0 0 0-.765-.021l-4.977-18.717 35.595 6.437-28.616 13.203zm64.34-6.745l-.237 1.115-63.867 6.25c-.015-.076-.058-.141-.083-.217l29.207-13.475 34.98 6.327zm.416-1.93l-.316 1.478-34.35-6.208 14.89-6.876 19.776 11.607zm3.54 1.485l-2.964-1.735 4.564-21.238a.022.022 0 0 0 .012.002l-.18 22.245a1.938 1.938 0 0 0-1.431.726zm40.41 67.586l-37.712-64.83c.129-.095.25-.2.35-.328l13.436 8.34 23.926 56.818zm.403-.386l-23.564-55.957 37.768 23.442-14.204 32.515zm15.208-31.895l-13.4 33.742c-.026-.008-.05-.03-.08-.034-.328-.078-.646-.042-.95.038l-.552-1.31 14.343-32.832.639.396zm.187-.465l-.625-.386 8.578-19.64-7.953 20.026zm28.274 15.604c-.1-.043-.185-.109-.295-.133a1.92 1.92 0 0 0-.848.005l-13.717-45.1c.296-.118.559-.29.765-.536l28.957 19.12-14.862 26.644zm.48.26c-.028-.022-.043-.053-.075-.075l14.829-26.581 7.333 4.842-22.086 21.814zm53.112-1.334c-.07.139-.156.268-.192.423-.027.114-.003.224-.01.333l-52.195 1.854a1.92 1.92 0 0 0-.406-.948l22.165-21.892 30.638 20.23zm1.096-.957a1.926 1.926 0 0 0-.858.569l-30.55-20.167 21.987-21.717 9.42 41.315zm2.926-53.51c.226.18.478.323.777.393.049.012.097-.005.146.005l-3.283 53.008c-.058.002-.117-.013-.172-.005l-9.475-41.544 12.007-11.857zm-.81-1.035l.212.162c.073.197.163.377.291.542l-11.817 11.673-2.4-10.528 13.714-1.85zm3.359 1.953l-.33-.758c.145-.085.262-.211.383-.335l34.89 27.645-34.943-26.552zm53.534 15.39l-5.791 20.804-12.04-9.544 17.075-11.794c.202.235.454.415.756.534zm.017 25.35c.107-.173.209-.355.255-.566.087-.377.027-.737-.092-1.077l11.005-5.343 13.927 26.081-25.095-19.095zm-17.307 38.861l6.573-16.568-6.31 16.687c-.078-.053-.178-.077-.263-.119zm-62.659 33.492c-.437-.1-.858-.015-1.237.155l-27.802-47.858 15.547-3.293 29.307 7.586-15.774 43.43c-.014-.003-.026-.015-.04-.02zm-44.28-44.474l14.835-3.144 27.863 47.96c-.18.132-.343.28-.471.465l-55.466-29.242 13.239-16.04zm-92.777 8.086l20.033-69.408c.352.06.685.007 1.001-.107l34.368 68.028-54.204 2.974c-.1-.668-.557-1.222-1.198-1.487zm-219.057-99.01l2.755-3.4 40.125-16.643 11.86 25.527c-.455.262-.81.697-.939 1.249-.002.005 0 .01 0 .014l-53.801-6.747zm-46.183-8.954c.194-.209.347-.45.44-.736l35.777 8.264c-.146.998.471 1.963 1.478 2.196.602.139 1.185-.039 1.637-.398.044.07.112.121.163.184.146.248.348.457.59.62l-11.267 19.239c-.139-.07-.268-.156-.423-.192-.596-.139-1.174.031-1.624.379L217.25 97.432zM260.35 106a1.901 1.901 0 0 0-.055-.566l5.035-2.09-2.416 2.976-2.564-.32zm-1.533 1.858a1.954 1.954 0 0 0 1.521-1.472v-.015l2.304.29-3.597 4.434-.228-3.237zm-1.256-.192c.136.068.267.156.423.192.109.025.21.003.32.008l.27 3.812-12.114 14.938 11.1-18.95zm8.41-5.112l-5.851 2.428c-.051-.09-.12-.166-.185-.243a1.094 1.094 0 0 0-.058-.088l33.043-35.336-26.949 33.24zm30.218-35.552c.381.088.75.024 1.096-.097l8.823 18.996-39.28 16.294 28.758-35.467a2 2 0 0 0 .603.274zm47.908 4.52L319.99 111.83c-.134-.066-.25-.15-.401-.185-.384-.087-.751-.024-1.096.102L306.63 86.21l36.92-15.314c.138.243.318.461.546.626zm26.733 25.47l-49.935 15.748c-.14-.302-.328-.576-.603-.77l24.111-40.308c.134.064.25.146.399.183.6.138 1.181-.04 1.633-.39l24.395 25.538zm44.762 20.736c-.073.141-.163.275-.2.437-.007.032.003.064-.002.093l-23.063-1.186a1.94 1.94 0 0 0-.652-1.33l7.035-9.42 16.882 11.406zm85.49 15.597c-.025.06-.062.116-.081.18l-3.04-.552.282-1.295 2.838 1.667zm68.694 4.886c.292.068.576.056.848-.005l13.718 45.099a1.975 1.975 0 0 0-.79.558L557.88 167.93l11.815-29.755c.031.01.053.03.082.037zm126.698 28.863l-.112-.085-2.315-1.835 5.832-20.949c.007.002.017 0 .026 0l-2.002 22.293a1.928 1.928 0 0 0-1.429.576zm-54.608 17.805a1.95 1.95 0 0 0 .768-.559l37.03 24.764a2.072 2.072 0 0 0-.096.212l-32.968-8.534-4.734-15.883zm-1.242.12c.017.002.03.016.044.019.267.06.537.063.792.017l4.651 15.601-10.206-2.644 4.72-12.994zm-33.464 5.554l32.135-6.804c.17.479.51.863.982 1.091l-4.741 13.058-28.376-7.345zm-61.825 13.49l1.519-.72 27.72-5.87-12.946 15.684-16.415-8.652c.034-.085.093-.158.114-.25.015-.064-.002-.127.008-.192zm-4.024 1.897l1.069-.503c.136.088.287.153.447.202l-.472 2.043-1.01-.469c.019-.058.058-.1.072-.16.09-.389.025-.763-.106-1.113zm-.963-1.79l-.267.61c-.046-.015-.085-.05-.134-.061-.389-.09-.763-.025-1.108.104l-.282-.556 1.791-.098zm42.961-19.854c-.053.119-.129.224-.158.357-.09.377-.029.741.093 1.084l-38.126 17.12a1.923 1.923 0 0 0-.804-.77l13.378-33.691 25.617 15.9zm2.892 2.369c.29-.209.505-.503.646-.85l18.111 4.689-14.716 3.115-4.041-6.954zm-2.2.058c.188.124.387.231.618.282.435.1.858.017 1.234-.153l3.983 6.852-14.055 2.976 8.22-9.957zm-35.165 15.665l34.539-16.311c.078.131.19.24.299.352l-8.583 10.397-26.255 5.562zm-7.645 3.241c-.017-.029-.031-.06-.05-.092l.758-.542c.058.073.126.14.194.209l-.902.425zm-.369-1.506l.661-.034c.041.28.143.542.297.777l-.759.547a1.972 1.972 0 0 0-.551-.479l.352-.811zm1.434-1.886c-.36.27-.647.644-.756 1.116-.027.123-.005.24-.01.36l-.5.028.918-2.101.348.597zm2.977.914l24.502-11.002-22.313 10.54-2.19.462zm60.829-12.883l-19.081-4.94c.005-.043 0-.082.002-.128l51.66-1.832-32.581 6.9zm56.999-22.572l-16.707-38.106 34.225 26.006-17.518 12.1zm29.316 1.958l-25.562 6.614-3.589-8.193 17.693-12.222 12.63 9.595-1.172 4.206zm.34.287l3.327-.863c.163.45.472.814.904 1.045l-1.32 3.492-13.182 33.222 10.271-36.896zm-49.918 14.1c.088-.158.183-.311.224-.493.06-.258.06-.513.022-.758l23.452-6.068 13.859 31.616a1.95 1.95 0 0 0-.525.464l-37.032-24.761zm.02-1.869l20.009-13.818 3.52 8.033-23.425 6.062c-.034-.094-.058-.19-.104-.277zm37.984 25.994l-13.84-31.565 25.302-6.546-10.59 38.048a1.945 1.945 0 0 0-.872.063zm15.382-40.713c-.097.165-.197.33-.243.527-.058.258-.058.51-.02.758l-3.095.8 1.067-3.827 2.291 1.742zm-50.613-38.458l17.088 38.975-20.087 13.877c-.262-.306-.598-.557-1.023-.654-.046-.012-.092.005-.143-.005l3.273-52.871.892.678zM506.41 140.619l35.231 60.566-1.125 2.583-2.143.117-31.963-63.266zm-5.467-6.157c.053.262.16.5.308.714l-4.666 4.184.982-4.565 3.376-.333zm-.008-.506c-.002.034-.002.066-.002.1l-3.273.32.206-.974 3.07.554zm-4.525 6.228l5.179-4.643c.155.13.335.23.535.313l-18.705 64.8 12.991-60.47zm-63.728 2.274c.263-.255.484-.559.574-.945.034-.146.01-.282.01-.425l63.769-6.24-1.096 5.095-38.708 34.707-24.549-32.192zm-1.377 54.256c-.083-.019-.163.003-.246-.007l.445-53.707c.301-.024.585-.1.838-.248l24.556 32.2-24.767 22.207a1.95 1.95 0 0 0-.826-.445zm-9.713-51.493l8.733 51.547c-.034.012-.068.029-.102.041L407.4 150.882l14.192-5.661zm-22.83-11.726l8.203-6.449 12.814 7.47 1.73 10.219-14.323 5.715-8.425-16.955zm-52.213 41.058l51.83-40.757 8.365 16.828-60.168 24.002c-.01-.022-.012-.051-.027-.073zm43.408-55.44c.374.085.739.027 1.08-.095l7.124 14.338-51.933 40.84a.05.05 0 0 0-.01-.015l43.156-55.333c.18.112.365.216.583.265zm-1.477-2.238l-67.405-3.467c-.005-.06.015-.129.005-.192l50.144-15.813 17.703 18.532c-.204.236-.37.5-.442.821-.01.041.002.08-.005.12zm41.257 23.073l-9.533-5.557-2.36-13.925c.132-.04.263-.082.384-.148l11.983 19.176c-.18.126-.347.272-.474.454zm-.1 2.063c.263.471.698.846 1.264.974.083.02.165-.002.248.005l-.445 53.375-8.694-51.312 7.628-3.042zm-.172-.452l-7.538 3.008-1.652-9.763 9.329 5.438c-.061.129-.144.243-.175.389-.076.318-.042.632.036.928zm-13.516-21.579c.25.248.544.455.914.54.187.044.367.027.547.017l2.298 13.565-12.47-7.27 8.711-6.852zm-23.812-1.953c.058-.129.14-.243.175-.384.005-.024-.005-.046 0-.07l23.064 1.188c.024.308.1.602.255.86l-8.838 6.949-14.656-8.543zm-.136.294l14.517 8.463-7.973 6.273-7.071-14.226a1.95 1.95 0 0 0 .527-.51zm65.531 56.725l38.23-34.281-13.856 64.488c-.411-.03-.812.04-1.15.243l-23.224-30.45zm-42.067-90.09c.13.031.253.004.377.012l1.25 31.71c-.494.056-.932.294-1.252.664l-16.855-11.386 15.888-21.268c.182.112.371.219.592.268zm-248.378 3.85c.025-.065.068-.116.083-.186l46.75 7.36c-.052.73.296 1.409.908 1.783l-5.538 12.357-42.203-21.313zm179.705 87.032a1.897 1.897 0 0 0-.041-.76l60.21-24.019 22.827 45.937c-.323.214-.556.535-.71.909l-82.286-22.067zm85.995 22.942c.031-.46-.068-.897-.32-1.256l24.732-22.18 23.217 30.446a1.936 1.936 0 0 0-.554.896l-47.075-7.906zm187.928 43.818a1.937 1.937 0 0 0-.778-.634l15.796-43.495 10.546 2.728 7.076 23.741-32.64 17.66zM800.73 178.46l-8.35 7.537-34.823 21.753 42.07-31.137 1.103 1.847zm.265-.243l-1.084-1.813 17.19-12.724-16.106 14.537zm89.999-2.95a1.967 1.967 0 0 0-1.174-.819c-.986-.226-1.946.352-2.267 1.288l-63.152-14.583 77.662 7.685-11.069 6.429zm14.085-6.13l-7.108 5.238-6.732 1.456a1.843 1.843 0 0 0-.121-.316l11.416-6.631 2.545.253zm.6-.442l-2.41-.236 12.874-7.477-10.464 7.713zm10.454 1.032v.003l-9.776-.967 11.22-8.271c.262.277.568.503.964.593.063.014.12-.003.18.004l-.608 7.158c-.92-.031-1.766.55-1.98 1.48zm-.02.73l-17.054 3.685 6.7-4.94 10.36 1.028c0 .075-.018.153-.006.226zm-112.703 8.455l16.274-16.873c.233.2.496.36.814.433.438.102.86.017 1.242-.156l9.378 16.382-27.2 1.195c-.063-.376-.26-.702-.508-.981zm-3.324.814c-.003.014-.012.026-.017.04-.107.465-.015.92.182 1.313l-5.404 3.377 5.239-4.73zm3.15-.999a1.952 1.952 0 0 0-.815-.433 1.928 1.928 0 0 0-.727-.017l15.33-13.84-13.789 14.29zm88.071-2.476c-.002-.058.013-.117.005-.175l6.15-1.327-2.16 1.592-3.995-.09zm-3.278 1.487c.246.25.542.454.91.54a1.965 1.965 0 0 0 2.354-1.473c.02-.08 0-.158.007-.236l3.585.08-41.032 30.239 34.176-29.15zm-.583-1.057a1.9 1.9 0 0 0 .35.81l-36.968 31.533c-.248-.248-.542-.455-.91-.537-.434-.102-.862-.017-1.24.158l-16.902-29.517 55.67-2.447zm-65.393-14.53c.33-.23.576-.563.712-.962l64.696 14.94c-.003.03 0 .056-.003.088l-55.937 2.461-9.468-16.527zm-50.615-29.208c.206.323.527.557.894.715l-20.852 74.236-36.825-47.38 56.783-27.57zM413.988 82.895c-.015.165-.041.333-.015.49l-32.992 10.408L346.96 70.81c.053-.107.112-.21.148-.328l66.88 12.413zM355.635 3.85l-10.284 64.158c-.933-.051-1.803.54-2.02 1.48-.006.029.006.058-.002.085l-44.776-4.459a1.893 1.893 0 0 0-.44-1.26L354.97 3.538c.195.144.42.246.666.311zm-186.12 42.796l44.866 48.191c-.2.229-.364.491-.442.805l-46.747-7.355c.066-.945-.53-1.827-1.48-2.049-.051-.012-.1.005-.15-.002l2.804-39.214a1.921 1.921 0 0 0 1.15-.376zM37.612 165.512l56.423-58.854c.214.16.46.29.737.355.223.05.44.041.653.014l8.84 44.876c-.66.191-1.212.7-1.38 1.418-.046.205-.031.406-.017.603l-64.896 12.258a1.993 1.993 0 0 0-.36-.67zm341.269 84.771c-.35-.08-.688-.031-1.006.066l-32.016-73.097c.365-.214.634-.554.802-.964l82.284 22.067a1.916 1.916 0 0 0 .428 1.499l-49.726 50.81a1.894 1.894 0 0 0-.766-.38zm71.83 35.81a1.957 1.957 0 0 0-.617-.02L431.5 200.447c.596-.212 1.084-.678 1.254-1.33l47.078 7.907a1.92 1.92 0 0 0 1.013 1.851l-30.086 77.24c-.017-.005-.032-.017-.05-.022zm214.542-28.43a1.913 1.913 0 0 0-.668-.567l17.073-45.145c.67-.107 1.23-.573 1.49-1.227l45.617 12.793-63.512 34.145zM3.893 120.337l89.47-14.69c.074.252.194.473.361.675l-56.423 58.853a1.96 1.96 0 0 0-.739-.35 1.945 1.945 0 0 0-1.456.236l-31.86-43.218c.294-.26.537-.583.632-.996.039-.173.02-.343.014-.51zm932.143 55.174c-.607-.14-1.196.044-1.65.404l-14.014-15.4c.238-.248.442-.542.525-.901a1.963 1.963 0 1 0-3.828-.882c-.017.07.003.143-.004.218l-94.194 1.33a1.945 1.945 0 0 0-1.49-1.633 1.965 1.965 0 0 0-2.029.755l-44.523-26.676c.058-.131.143-.248.175-.396a1.961 1.961 0 0 0-1.468-2.352 1.965 1.965 0 0 0-2.357 1.467c-.039.175-.02.343-.012.508l-69.084 9.858c-.178-.688-.7-1.266-1.439-1.436-.89-.204-1.742.248-2.15 1.015l-71.44-27.701c.006-.022.023-.037.028-.059a1.965 1.965 0 0 0-3.827-.882c-.083.355-.032.698.07 1.021l-51.393 21.61a1.945 1.945 0 0 0-1.274-.994c-.87-.201-1.715.234-2.128.98l-63.602-26.827c.01-.044.044-.076.053-.12a1.963 1.963 0 0 0-1.472-2.354c-.94-.218-1.847.302-2.214 1.16l-83.468-23.88c.154-1.006-.469-1.98-1.477-2.214a1.947 1.947 0 0 0-1.383.21L357.475 3.35c.265-.253.488-.559.576-.943A1.966 1.966 0 0 0 356.58.05a1.966 1.966 0 0 0-2.358 1.475c-.024.112-.002.224-.007.335l-98.57 8.058a1.965 1.965 0 0 0-1.463-1.5 1.965 1.965 0 0 0-2.357 1.47c-.076.328-.04.647.044.948L170.047 44.15a1.92 1.92 0 0 0-1.259-.964 1.96 1.96 0 0 0-2.1 2.96l-70.15 57.548c-.243-.233-.527-.425-.882-.51a1.965 1.965 0 0 0-2.355 1.472c-.041.172-.02.34-.014.513l-89.47 14.688c-.194-.657-.697-1.198-1.41-1.364a1.962 1.962 0 1 0-.885 3.824c.519.12 1.034.018 1.457-.235l31.855 43.216c-.291.26-.532.585-.627.996a1.963 1.963 0 0 0 1.47 2.357c.713.163 1.405-.105 1.867-.608l61.354 44.662c-.09.16-.19.32-.234.512a1.963 1.963 0 1 0 3.828.882c.073-.318.041-.629-.037-.925l71.986-27.617c.257.49.697.88 1.28 1.016.96.223 1.893-.324 2.238-1.218l85.667 21.317c-.117.981.491 1.917 1.478 2.145.68.156 1.341-.09 1.803-.552l70.32 54.633c-.102.17-.201.343-.247.547a1.96 1.96 0 0 0 1.472 2.355 1.962 1.962 0 0 0 2.353-1.468c.065-.294.053-.58-.005-.853l35.838-10.594c.226.588.698 1.072 1.36 1.225a1.952 1.952 0 0 0 2.074-.855l68.384 34.09c-.03.08-.08.138-.1.218a1.963 1.963 0 1 0 3.825.882c.088-.37.03-.722-.085-1.057l79.487-38.431c.267.413.685.73 1.203.85a1.958 1.958 0 0 0 1.985-.717l69.818 42.127c-.053.12-.129.221-.158.35a1.962 1.962 0 1 0 3.825.885c.1-.435.017-.858-.153-1.237l53.998-31.28c.27.37.651.665 1.135.774a1.963 1.963 0 0 0 2.355-1.47c.07-.308.046-.607-.025-.896l78.76-29.291c.256.493.696.887 1.284 1.023a1.965 1.965 0 0 0 2.355-1.47 1.948 1.948 0 0 0-.309-1.545l18.925-16.226 80.965-.185c.102.79.668 1.472 1.492 1.662a1.962 1.962 0 0 0 2.354-1.47c.07-.311.044-.617-.029-.909l82.515-31.594c.263.484.698.865 1.276.999a1.963 1.963 0 0 0 .882-3.824z" mask="url(#b)"/>
    </g>
</svg>
