<svg xmlns="http://www.w3.org/2000/svg" width="11" height="16" viewBox="0 0 11 16">
    <g fill="#FDFCFC" fill-rule="nonzero">
        <path d="M9.69 6.7V4.334C9.69 1.944 7.81 0 5.5 0 3.19 0 1.31 1.944 1.31 4.333v2.368C.575 6.855.02 7.529.02 8.333v6C.02 15.252.743 16 1.632 16h7.736c.89 0 1.612-.748 1.612-1.667v-6c0-.804-.555-1.478-1.29-1.632zM1.954 4.334C1.954 2.311 3.545.667 5.5.667c1.955 0 3.546 1.644 3.546 3.666v2.334H8.4V4.333c0-1.654-1.302-3-2.901-3-1.6 0-2.901 1.346-2.901 3v2.334h-.645V4.333zm5.802 0v2.334H3.244V4.333C3.244 3.047 4.256 2 5.5 2c1.244 0 2.256 1.047 2.256 2.333zm2.58 10c0 .552-.435 1-.968 1H1.632c-.533 0-.967-.448-.967-1v-6c0-.551.434-1 .967-1h7.736c.533 0 .967.449.967 1v6z"/>
        <path d="M5.5 8.667c-.889 0-1.612.748-1.612 1.666 0 .634.358 1.209.897 1.488l-.249 1.799a.34.34 0 0 0 .076.265.32.32 0 0 0 .243.115h1.29a.32.32 0 0 0 .243-.115.339.339 0 0 0 .076-.266l-.249-1.799c.539-.278.897-.853.897-1.487 0-.918-.723-1.666-1.612-1.666zm.27 2.62a.334.334 0 0 0-.229.368l.232 1.678h-.546l.232-1.678a.334.334 0 0 0-.228-.368.986.986 0 0 1-.698-.954c0-.551.434-1 .967-1 .533 0 .967.449.967 1 0 .445-.28.828-.698.954z"/>
    </g>
</svg>
