<svg xmlns="http://www.w3.org/2000/svg" width="16" height="17" viewBox="0 0 16 17">
    <path fill="#FFF" fill-rule="nonzero" d="M15.968 6.633l-.002-.018a.795.795 0 0 0-.021-.137l-.243-1.576a.106.106 0 0 0-.004-.013.24.24 0 0 0-.02-.053.264.264 0 0 0-.021-.045c-.003-.004-.003-.009-.006-.013a.798.798 0 0 0-.71-.306l-.579.065a4.252 4.252 0 1 0-8.467.753l-4.984.435a.79.79 0 0 0-.54.285.798.798 0 0 0-.355.663v9.042c0 .44.357.797.797.797h14.36c.441 0 .799-.357.799-.797V6.673a.262.262 0 0 0-.004-.04zm-9.966-.718h-.707l.693-.1.014.1zm-5.454.758c0-.147.119-.266.265-.266h14.36c.122.001.226.085.254.202l.013.084v3.703H.548V6.673zm6.706-1.269a2.925 2.925 0 1 1 5.792-.593c0 .025 0 .047-.002.087a2.874 2.874 0 0 1-.199.977h-1.394v-.532a.775.775 0 0 0-.09-.367l-.004-.008a.814.814 0 0 0-.113-.157.792.792 0 0 0 .207-.531v-.532a.798.798 0 0 0-.532-.75v-.58h-.532v.532h-.266v-.532H9.59v.532h-.798v.532h.532v2.393H7.398a3.042 3.042 0 0 1-.144-.47zm3.399-1.922c.147 0 .266.119.266.266v.532a.266.266 0 0 1-.266.266h-.798V3.482h.798zm-.798 1.994l1.064-.094v.493H9.855v-.399zM.548 10.928H15.44v.532H.548v-.532zm14.446-5.926a.272.272 0 0 1 .195.062l.127.825a.787.787 0 0 0-.142-.014h-.933c.066-.262.108-.53.123-.801l.63-.072zm-4.873-3.914a3.732 3.732 0 0 1 3.723 3.74v.006a3.662 3.662 0 0 1-.158 1.041h-.275c.1-.307.155-.626.164-.949.003-.039.003-.075.003-.115a3.457 3.457 0 1 0-6.747 1.064h-.276a3.87 3.87 0 0 1-.097-.393 3.729 3.729 0 0 1 3.663-4.394zm5.319 14.627a.266.266 0 0 1-.266.266H.814a.266.266 0 0 1-.266-.266v-3.723H15.44v3.723z"/>
</svg>
