<svg xmlns="http://www.w3.org/2000/svg" width="16" height="14" viewBox="0 0 16 14">
    <g fill="#FFF" fill-rule="nonzero">
        <path d="M5.026 2.275v.497a.235.235 0 1 0 .469 0v-.497a.235.235 0 1 0-.469 0zM10.505 2.275v.497a.235.235 0 1 0 .469 0v-.497a.235.235 0 1 0-.469 0zM5.23 12.085a.682.682 0 0 0 0 1.365.682.682 0 0 0 0-1.365zm0 .895a.212.212 0 1 1 .002-.425.212.212 0 0 1-.001.425zM10.77 12.085a.682.682 0 0 0 0 1.365.682.682 0 0 0 0-1.365zm0 .895a.212.212 0 1 1 0-.425.212.212 0 0 1 0 .425zM1.138 2.338c0 .475.386.861.86.861a.861.861 0 0 0 0-1.722.861.861 0 0 0-.86.861zm1.25 0a.391.391 0 1 1-.783 0 .391.391 0 0 1 .783 0zM14.002 1.477a.861.861 0 0 0 0 1.722.861.861 0 0 0 0-1.722zm0 1.253a.391.391 0 1 1 .002-.783.391.391 0 0 1-.002.783z"/>
        <path d="M1.342 11.05h2.436v2.217c0 .527.428.957.955.957h6.534c.527 0 .955-.43.955-.957V11.05h2.436c.74 0 1.342-.603 1.342-1.345v-2.47a.235.235 0 1 0-.469 0v2.47a.875.875 0 0 1-.873.875h-2.436V7.02h.242a1.034 1.034 0 0 0 0-2.067H3.536a1.034 1.034 0 0 0 0 2.067h.242v3.56H1.342a.875.875 0 0 1-.873-.875V3.663a.235.235 0 1 0-.469 0v6.042c0 .742.602 1.345 1.342 1.345zM5.34 5.423h1.374v2.072c0 .711.577 1.29 1.286 1.29a1.29 1.29 0 0 0 1.286-1.29V5.423h1.374v5.68a3.197 3.197 0 0 0-1.551 1.555H6.89a3.196 3.196 0 0 0-1.55-1.555v-5.68zm1.842 0h1.636v2.072a.82.82 0 0 1-.818.82.82.82 0 0 1-.818-.82V5.423zm4.572 7.844a.488.488 0 0 1-.487.487H4.733a.488.488 0 0 1-.487-.487V5.423h.625v5.835c0 .096.059.182.147.218A2.72 2.72 0 0 1 6.52 12.98a.234.234 0 0 0 .217.147h2.526a.234.234 0 0 0 .217-.147 2.72 2.72 0 0 1 1.502-1.505.235.235 0 0 0 .147-.218V5.423h.625v7.844zm1.272-7.28c0 .31-.252.564-.562.564h-.242V5.423h.242c.31 0 .562.253.562.564zm-9.49.564a.564.564 0 0 1 0-1.128h.242v1.128h-.242z"/>
        <path d="M15.766 7.654c.129 0 .234-.105.234-.235V1.58c0-.741-.602-1.344-1.342-1.344H1.342C.602.235 0 .838 0 1.579v2.228a.235.235 0 1 0 .469 0V1.58c0-.482.391-.875.873-.875h13.316c.482 0 .873.393.873.875v5.84c0 .13.105.235.235.235z"/>
    </g>
</svg>
